# xmcd CD database file
#
# Track frame offsets:
#	150
#	20758
#	41746
#	65554
#	95363
#	119492
#	142255
#	164530
#	186258
#	210104
#	232375
#	257143
#	280375
#
# Disc length: 4050 seconds
#
# Revision: 0
# Processed by: cddbd v1.5.2PL0 Copyright (c) Steve Scherf et al.
# Submitted via: CDex 1.51
#
DISCID=ce0fd00d
DTITLE=Salsa All Stars - Salsa Nights
DYEAR=2008
DGENRE=Salsa
TTITLE0=Un Monton de Estrellas
TTITLE1=El Ultimo Beso
TTITLE2=Idilio
TTITLE3=El Gran Varon
TTITLE4=Fue Su Primera Vez
TTITLE5=Pedro Navajas
TTITLE6=Sin Sentimientos
TTITLE7=Mia
TTITLE8=Una Aventura
TTITLE9=Lluvia
TTITLE10=Jardin Prohibido
TTITLE11=Ven Devorame Otra Vez
TTITLE12=Que Locura Enamorarme de Ti
EXTD=YEAR: 2008
EXTT0=
EXTT1=
EXTT2=
EXTT3=
EXTT4=
EXTT5=
EXTT6=
EXTT7=
EXTT8=
EXTT9=
EXTT10=
EXTT11=
EXTT12=
PLAYORDER=
